<?xml version="1.0" encoding="UTF-8" standalone="no"?>
<!-- Created with Inkscape (http://www.inkscape.org/) -->

<svg
   width="63.654137"
   height="63.471905"
   viewBox="0 0 63.654137 63.471905"
   version="1.1"
   id="svg5"
   xmlns="http://www.w3.org/2000/svg"
   xmlns:svg="http://www.w3.org/2000/svg">
  <defs
     id="defs2" />
  <g
     id="layer1"
     transform="translate(-0.23078537,-0.34923744)">
    <g
       id="path1182"
       style="opacity:1">
      <path
         id="path2"
         style="baseline-shift:baseline;display:inline;overflow:visible;vector-effect:none;enable-background:accumulate;stop-color:#000000;stop-opacity:1"
         d="m 63.072266,30.757812 -62.0546879,0.369141 0.011719,2 62.0546869,-0.369141 z M 1.0240177,32.127242 63.078371,31.757867 M 32.058594,0.34960938 c -17.564163,0 -31.82812525,14.21928862 -31.82812525,31.73632762 0,17.51704 14.26396225,31.734375 31.82812525,31.734375 17.564162,0 31.826172,-14.217335 31.826172,-31.734375 0,-17.517039 -14.26201,-31.73632762 -31.826172,-31.73632762 z m 0,2.00000002 c 16.486477,0 29.826172,13.3033726 29.826172,29.7363276 0,16.432956 -13.339695,29.734375 -29.826172,29.734375 -16.486477,0 -29.8281252,-13.301419 -29.8281252,-29.734375 0,-16.432955 13.3416482,-29.7363276 29.8281252,-29.7363276 z" />
    </g>
  </g>
</svg>
