<?xml version="1.0" encoding="UTF-8" standalone="no"?>
<!-- Created with Inkscape (http://www.inkscape.org/) -->

<svg
   width="1000"
   height="1000"
   viewBox="0 0 1000 1000"
   version="1.1"
   id="svg882"
   xmlns="http://www.w3.org/2000/svg"
   xmlns:svg="http://www.w3.org/2000/svg">
  <defs
     id="defs879" />
  <path
     style="fill:#000000;fill-opacity:1;stroke:none"
     id="path14259"
     d="m 482.23222,-9.0996321 c 13.62209,0.062137 -5.525,448.7495221 7.0364,454.0198721 12.56139,5.27036 319.29748,-322.75395 328.88582,-313.07774 9.58833,9.67621 -321.22059,313.40706 -316.06505,326.01601 5.15554,12.60895 453.99892,-2.44409 453.93679,11.178 -0.0621,13.62209 -448.74952,-5.525 -454.01988,7.0364 -5.27035,12.56139 322.75395,319.29748 313.07775,328.88582 -9.67621,9.58833 -313.40707,-321.22059 -326.01602,-316.06505 -12.60895,5.15554 2.44409,453.99892 -11.178,453.93679 -13.62209,-0.0621 5.525,-448.74952 -7.03639,-454.01988 C 458.29225,483.54024 151.55615,811.56455 141.96782,801.88834 132.37948,792.21213 463.18841,488.48127 458.03287,475.87232 452.87732,463.26337 4.0339403,478.31641 4.0960771,464.69432 4.158214,451.07223 452.8456,470.21932 458.11595,457.65793 463.38631,445.09654 135.362,138.36044 145.03821,128.77211 c 9.67621,-9.58834 313.40706,321.22059 326.01601,316.06505 12.60895,-5.15554 -2.44409,-453.9989289 11.178,-453.9367921 z"
     transform="translate(20.19795,26.720454)" />
</svg>
